<?xml version="1.0" encoding="UTF-8"?>
<svg id="Layer_1" data-name="Layer 1" xmlns="http://www.w3.org/2000/svg" viewBox="0 0 439.47 311.24">
  <path d="M198.36,68.37c.68,1.07-.17,1.52-.35,2.36-2.66,12.1,10.34,33.49,22.39,36.64,1.55.4,3.78.76,5.34.44,1.72-.35,4.63-3.11,2.98,1.3-1.1,2.93-3.84,6.59-5.99,8.88-6.7,7.13-14.26,10.11-24.07,7.75-1.47-.35-2.68-1.28-4.11-1.27-.05,1.21-.9,2.58-1.59,3.57-3.03,4.34-8.79,5.73-13.74,4.19-1.64-.51-8.19-4.25-8.63-5.78-.08-.29-.09-.52.08-.79.28-.44,2.21-1.72,2.77-2.51,3.74-5.31,2.92-14.03-2.18-18.21-10.91-8.95-26.06-5.7-36.76,1.82-22.47,15.78-31.72,40.17-27.73,67.22,3.94,26.75,25.36,54.92,53.6,58.17,3.49.4,12.65.8,15.78-.05,2.51-.68,1.22-4.95,1.14-6.79-.37-8.01-.63-16.01-.97-23.97-.12-2.66.12-5.48-.25-8.14-.32-2.3-2.59-2.64-4.28-3.87-3.27-2.39-6.07-6.15-9.16-8.82-7.33-6.34-20.42-10.45-28.87-3.99-.72.55-2.85,3-2.18-.02,1.28-5.85,7.46-12.85,12.61-15.7,20.6-11.41,37.47,10.25,58.5,5,3.6-.9,7.6-2.43,11.07-3.8.86-.34,5.59-2.68,6.01-2.4.75.49-1.05,3.43-1.32,4.21-2.91,8.29-3.03,14.37-8.32,22.14-1.06,1.55-1.49,1-1.55,3.44-.25,10.31.74,20.59.38,30.91,1.51,12.21-.17,27.73,8.4,37.65.66.77,1.72,1.14,1.93,2.15-.22.35-.47.34-.83.38-2.97.34-6.17-.22-9.12-.26-14.84-.21-29.76-.42-44.67-.38-10.92.03-22.3,1.37-32.7-2.61-17.08-6.54-31.85-19.24-41.94-34.34-14.45-21.63-17.8-51.03-16.21-76.5.62-9.95,3.26-18.1,6.7-27.41,2.06-5.57,3.95-9.12,7.45-13.9,9.44-12.93,20.97-24.2,35.88-30.57,1.71-.73,11.24-4.64,12.31-4.68.79-.03,2.32.71,3.19.86,14.74,2.62,37.1.3,52.23-1.38.93-.1,6.53-1.13,6.82-.94Z"/>
  <path d="M415.48,179.52c.97-10.43,11.9-15.78,21.11-17.15-2.14,2.92-4.14,6.11-5.1,9.65-.16.58-.66,2.25-.66,2.7v71.11c2.54.21,4.45-1.52,5.71-3.52l1.24-2.71c2.47,4.98,2.36,9.61-1.31,13.91-1.78,2.08-5.61,4.55-8.4,4.55h-17.63c2.58-2.59,4.34-5.89,4.56-9.59-3.84,5.66-9.82,10.71-16.91,11.27-10.41.83-21-4.19-26.7-12.87-7.71-11.74-7.98-32.6-.87-44.67,9.04-15.32,34.02-21.27,44.96-4.82v-17.87ZM383.1,214.65c-2.08,9.96-.39,27.88,10.39,32.42s21.16-6.05,21.99-16.48c.36-4.61.48-13.93-.02-18.44-1.34-12.09-17.48-19.89-26.49-10.22-4.04,4.34-.6,11.68,4.44,13.56-3.09,1.87-7.53,1.5-10.31-.84Z"/>
  <path d="M106.71,59.76c.22.13,2.05,3.85,2.37,4.45.24.45.78.41.7,1.36-.07.89-.65.54-1.06.8-5.21,3.32-10.96,6.57-16.31,9.66-7.88,4.55-16.32,8.72-23.5,13.69-.5.35-2.28,1.13-3.15,1.64-6.28,3.65-12.87,7.18-19.06,10.87-.85.51-1.56,1.23-2.55,1.41l-.19,133.22,115.68,66.76c.72-.37,1.33-.89,2.05-1.27,2.11-1.12,4.19-2.37,6.28-3.57,19.5-11.23,38.64-22.32,58.38-33.72,2.8-1.62,5.87-3.39,8.57-4.85.59-.32,2.66-1.98,3.24-1.64l3.29,5.48c.29,1.04-1.25,1.31-1.89,1.69-5.1,2.99-10.51,6.08-15.84,9.17-19.2,11.1-39.51,23.14-59.21,34.04-2.44,1.35-3.27,2.88-6.75,2.08-.25-.06-1.45-.73-1.9-.93-2.81-1.29-7.42-4.52-10.68-6.4-7.08-4.08-14.85-8.36-21.69-12.31-19.43-11.23-39.65-23.08-59.23-34.38-6.86-3.96-13.82-7.85-20.56-11.87-1.78-1.07-6.11-2.76-6.52-4.94l.1-139.94c.21-.52.44-.92.86-1.3,1.3-1.18,4.62-2.55,6.3-3.55,13.31-7.91,26.86-15.76,40.54-23.45,6.28-3.53,13.43-8.07,20.37-11.76.19-.1.51-.94,1.34-.43Z"/>
  <path d="M241.68,188.75c8.9.9,15.22,9.95,10.43,18.23-.66.1-.37-.07-.48-.35-1.24-3.15-2.69-5.65-6.47-5.88l.51,25.75.2.28c2.26.51,4.4,1.66,6,3.35-4.72,1.8-7.2,5.42-5.74,10.54,1.04,3.64,5.16,6.36,8.81,6.78,7.91.91,12.92-3.51,13.5-11.32.92-12.46-.73-26.02.02-38.59,0-3.3,3.81-8.78,7.29-8.78h13.79c-3.11,2.87-4.54,6-5.03,10.2-1.58,13.3.83,28.55-.23,41.98-1.09,13.81-18.07,19.51-29.89,18.83-9.88-.57-22.8-7.09-23.63-18.11-.95-12.65.61-26.53.02-39.35-.24-5.19-.97-10.14-5.29-13.54h16.19Z"/>
  <path d="M274.91,103.97c-.07-.23-3.11-2.08-3.62-2.38-.26-.15-.63-.12-.92-.29-7.4-4.29-14.98-8.67-22.6-13.08-28.22-16.33-56.86-33.38-85.65-49.4-.74-.41-2.05-1.84-2.91-1.66-.15.03-.15.36-.24.4-.71.33-1.47.68-2.17,1.08-3.4,1.94-6.72,3.98-10.15,5.93-1.29.74-2.45,1.43-3.74,1.98-.33.14-.46.96-1.56.16-1.12-1.67-1.89-3.85-3.42-5.1-.14-.55,2.92-2.09,3.54-2.45,4.71-2.73,9.71-5.53,14.52-8.22.31-.18,1.88-1.36,2-1.4.5-.17,2.85-.09,3.4.13.08.03,1.04.66,1.33.83,27.33,15.62,53.88,31.34,80.94,46.96,5.01,2.89,9.63,5.38,14.52,8.21,6.73,3.9,14.04,7.73,20.54,11.84,1.05.67,2.06,1.75,3.14,2.27v82.27h-6.6l-.36-.36v-77.71Z"/>
  <path d="M358.63,258.07h-16.67c-.58,0-2.97-.67-3.64-.92-6.74-2.41-10.86-11.05-6.43-17.31l1.36,2.71c1.26,2.01,3.24,3.42,5.71,3.28v-70.87c0-1.05-1.39-4.66-1.88-5.8-1.02-2.37-2.44-4.55-3.88-6.68,1.71,0,3.75.73,5.4,1.32,6.88,2.45,13.63,7.11,15.36,14.63,1.33,21.11-.57,42.81.35,63.92.21,4.7.65,9.41,2.99,13.56.42.75,1.06,1.37,1.32,2.15Z"/>
  <path d="M322.89,188.75c-3.03,4.09-4.18,8.49-4.09,13.56.24,13.88-.4,28.46.24,42.21.08,1.66.28,3.8.56,5.44.54,3.14,2.11,5.8,4.25,8.11h-15.71c-1.01,0-3.93-.85-4.98-1.26-7.35-2.82-10.39-10.19-6.41-17.21l1.4,3.04c1,1.9,3.1,3.32,5.32,3.2v-47.85c0-.67-.96-3.68-1.26-4.5-.61-1.67-1.58-3.15-2.34-4.73h23.03Z"/>
  <path d="M50.14,1.2c-2.11,4.62-3.21,9.48-1.67,14.5.64,2.08,2.41,3.94,2.15,6.37-.85-.25-1.47-.87-2.38-1.09-4.75-1.14-7.47,2.65-11.78,1.46-1.34-.37-2.33-1.16-3.11-2.29,1.23-.08,2.62-.6,3.68-1.24.44-.27,2.56-2.23,2.56-2.48v-7.32h-9.12v41.01c2.54.15,3.51-2.15,4.44-4.07,2.82,4.07.44,10.07-3.87,11.95-.45.2-1.99.76-2.36.76h-11.39c.69-1.56,1.67-2.96,2.27-4.56.27-.71,1.08-3.13,1.08-3.71V9.11h-9.6v7.08c1.84,1.78,4.17,3.53,6.72,3.96-.16.36-.54.7-.85.95-5.76,4.82-10.78-3.24-16.43.85l-.47-.25c.1-2.33,1.64-4.03,2.28-6.11,1.57-5.14.32-9.58-1.56-14.39h49.42Z"/>
  <path d="M67.65,17.27c5.24-3.75,13.34-3.55,18.45.38,3.58,2.75,4.59,5.62,4.83,10.04.44,8.13-.74,17.22,0,25.19.21,2.27,1.15,4.2,2.63,5.88h-7.8c-1.79,0-3.95-3.48-3.93-5.18l-.04-19.75c-1.46.03-2.58-.89-3.59-1.81-.09-.48.08-.29.3-.41,2.73-1.38,3.98-2.97,2.99-6.24-1.95-6.41-12.88-4.87-13.83,1.63.38,7.98-.58,16.53-.02,24.44.2,2.85.92,5.21,2.88,7.32h-9.96c-.26,0-2.06-.53-2.44-.67-4.58-1.71-6.52-6.19-4.15-10.6l1.67,2.76c.73.66,1.66,1.03,2.65,1.07V7.31c0-.28-.74-2.23-.92-2.68-.64-1.61-1.69-3.08-2.44-4.63,4.46.79,10.32,3.84,11.94,8.33.24.67.77,2.69.77,3.3v5.64Z"/>
  <path d="M108.67,40.77c1.72,11.87,16.25,16.67,24.35,7.2l2.75-4.08c2.66,5.42-2.52,9.33-1.19,14.63l-9.96,1.2c-15.76,1.03-27.71-7.68-26.74-24.34,1.05-18.05,19.25-23.92,34.54-19.19,1.26,5.27,4.82,9.24,9.35,11.99-1.1,1.16-2.33,2.28-3.84,2.87-.51.2-1.64.27-1.92.48-.16.12-1.15,3.01-1.55,3.73-3.96,7.03-14.1,9.06-21.48,7.31-1.54-.36-2.91-1.13-4.31-1.8ZM119.41,21.89c-3.79.46-7.94,3.86-9.51,7.28-1.07,2.32-1.23,3.36.82,5.12,5.01,4.31,14.06,3.25,16.71-3.19,2.51-6.12-2.1-9.92-8.01-9.21Z"/>
  <path d="M323.36,169.81c-1.5,1.21-3.25,2.07-4.78,3.26-3.13,2.42-5.83,5.6-7.46,9.21-1.38-1.58-2.25-3.54-3.6-5.15-2.49-2.97-5.81-5.24-9.11-7.2,5.44-2.76,9.68-7.01,12.6-12.35,2.62,5.34,6.96,9.68,12.35,12.23Z"/>
</svg>